<svg version="1.1" id="Layer_1" xmlns="http://www.w3.org/2000/svg" xmlns:xlink="http://www.w3.org/1999/xlink" x="0px" y="0px"
	 width="100%" viewBox="0 0 416 400" enable-background="new 0 0 416 400" xml:space="preserve">
<path fill="#000000" opacity="1.000000" stroke="none" 
	d="
M185.000031,241.742584 
	C240.151093,241.742096 294.802155,241.739929 349.453186,241.749954 
	C351.282440,241.750290 353.149567,241.666153 354.931519,241.991364 
	C357.218414,242.408752 358.227142,244.103851 358.144958,246.384048 
	C358.061035,248.713135 356.917572,250.139282 354.486176,250.268799 
	C353.156372,250.339630 351.821808,250.339584 350.489380,250.339691 
	C257.515961,250.346893 164.542542,250.351242 71.569122,250.352127 
	C70.236710,250.352127 68.902863,250.336578 67.572205,250.274399 
	C65.132828,250.160431 63.994980,248.711365 63.868641,246.411346 
	C63.743080,244.125458 64.765640,242.434891 67.055405,242.013687 
	C68.837044,241.685944 70.703377,241.756760 72.532104,241.756088 
	C109.854744,241.742538 147.177383,241.744186 185.000031,241.742584 
z"/>
<path fill="#000000" opacity="1.000000" stroke="none" 
	d="
M115.770569,271.679810 
	C119.925171,271.119446 123.631744,270.562012 128.548920,269.822510 
	C119.083664,281.332855 123.430626,294.058563 122.657310,306.313568 
	C124.088608,304.587830 125.465927,302.813660 126.962112,301.146149 
	C130.356247,297.363281 134.634277,295.776886 139.576813,296.957275 
	C144.245697,298.072327 146.063370,302.014069 147.050476,306.151581 
	C149.612045,316.888245 148.202255,327.656830 146.859283,338.400330 
	C146.797775,338.892365 146.527527,339.367554 146.514404,339.854889 
	C146.435623,342.781158 145.326889,346.183929 148.461761,348.085297 
	C151.527512,349.944733 152.174973,345.534058 154.860229,344.988434 
	C155.861069,348.549683 154.347305,350.788269 151.341965,352.015869 
	C147.220367,353.699371 142.603180,351.779449 140.858124,347.723602 
	C139.079849,343.590515 139.412003,339.162537 140.017700,334.901215 
	C141.032837,327.759399 140.828583,320.621063 140.742935,313.465149 
	C140.718475,311.420197 140.232620,309.485962 139.377563,307.671082 
	C136.978241,302.578400 131.789978,301.840027 128.069275,306.010101 
	C122.737518,311.985779 120.884026,327.243378 124.357857,334.541748 
	C125.774132,337.517303 128.988205,338.672852 131.731369,342.471497 
	C122.652084,341.773102 115.064285,339.621338 106.794075,339.497528 
	C115.702278,334.304474 114.678017,326.105011 114.738548,318.381226 
	C114.815567,308.553253 114.788834,298.722260 114.630539,288.895386 
	C114.526627,282.443909 113.886574,276.106750 105.481857,273.351593 
	C109.467720,270.941559 112.497719,272.005371 115.770569,271.679810 
z"/>
<path fill="#000000" opacity="1.000000" stroke="none" 
	d="
M221.355682,172.892090 
	C233.287003,172.480942 244.759521,171.732437 256.222076,171.862381 
	C262.055969,171.928513 265.728363,170.606613 266.925598,164.480774 
	C267.569641,161.185394 269.928528,159.500031 273.372650,159.313538 
	C275.163147,159.216568 276.773315,159.227341 277.350525,161.302536 
	C277.837250,163.052383 276.992554,164.352539 275.406464,164.836304 
	C272.990936,165.572998 272.178650,167.426346 271.377106,169.502090 
	C268.144745,177.872940 264.953308,186.263321 261.495087,194.541351 
	C260.237335,197.552139 260.405457,199.804108 262.737610,202.168335 
	C265.112091,204.575455 267.125977,207.336060 265.492523,211.065323 
	C263.833862,214.852127 260.362183,215.801956 256.818237,215.826965 
	C244.851593,215.911392 232.882660,215.752121 220.915619,215.603149 
	C219.275040,215.582733 217.190613,215.299057 217.235565,213.109482 
	C217.288162,210.546707 219.562225,210.717117 221.371140,210.670837 
	C232.344635,210.389999 243.319641,210.166595 254.292297,209.858063 
	C256.018890,209.809509 258.018097,210.466110 259.444366,208.351318 
	C258.046844,204.533310 255.020309,202.823578 251.153748,202.474380 
	C242.386551,201.682617 233.617249,200.813171 224.828827,200.398956 
	C220.240982,200.182693 217.723328,198.869370 217.514511,193.807343 
	C217.317078,189.021500 216.360336,184.264008 215.682327,179.501892 
	C215.104004,175.439926 216.575165,173.070633 221.355682,172.892090 
M257.846161,187.445984 
	C258.703918,184.188721 261.073578,181.336700 260.741974,177.165451 
	C251.047440,178.739334 241.560913,177.799149 232.150940,178.613297 
	C221.430756,179.540787 220.067902,181.876465 223.348175,192.217728 
	C223.820038,193.705261 224.571701,194.490387 226.077026,194.615570 
	C234.332611,195.302048 242.588669,195.983170 250.843399,196.679840 
	C253.414215,196.896820 254.856232,195.625198 255.646835,193.286270 
	C256.230438,191.559692 256.968811,189.885422 257.846161,187.445984 
z"/>
<path fill="#000000" opacity="1.000000" stroke="none" 
	d="
M277.333923,304.613831 
	C278.530579,301.376190 280.319916,298.988892 282.459991,296.851227 
	C289.572296,289.746948 296.744781,290.499146 304.631073,299.751923 
	C305.078278,289.351318 302.718842,279.971161 300.389008,270.088257 
	C306.769043,270.088257 312.576172,270.088257 318.383301,270.088257 
	C309.080139,274.532898 311.473511,282.881622 311.371124,290.207275 
	C311.226837,300.527313 311.250610,310.843781 312.148285,321.156128 
	C312.634399,326.740723 313.592621,331.729309 319.182526,334.480896 
	C319.953400,334.860382 320.481140,335.527863 319.982025,337.017090 
	C314.525391,337.017090 308.875519,337.017090 303.216553,337.017090 
	C302.143433,334.823914 304.469238,332.806335 303.161804,330.180786 
	C300.990601,332.225494 299.273529,334.626892 296.703674,336.084167 
	C288.808380,340.561218 280.703522,338.181000 277.370239,329.757812 
	C274.154724,321.632172 273.629272,313.256897 277.333923,304.613831 
M287.546814,301.098236 
	C283.672058,306.531311 283.093872,312.720001 283.175934,319.147278 
	C283.236450,323.883881 284.453796,327.756439 289.360504,329.365387 
	C294.153870,330.937164 298.469727,328.997223 301.732147,324.265381 
	C306.902130,316.766815 303.731537,309.541046 300.827240,302.517914 
	C297.858093,295.337921 293.375916,294.812164 287.546814,301.098236 
z"/>
<path fill="#000000" opacity="1.000000" stroke="none" 
	d="
M347.402588,288.189453 
	C356.218414,292.462372 359.223846,299.121552 355.944244,306.471191 
	C353.801331,311.273468 349.097900,313.446381 343.953156,312.010986 
	C338.765839,310.563660 335.246674,306.052124 335.729523,301.468323 
	C336.168579,297.300140 338.943970,295.345673 343.994781,295.647888 
	C348.209534,295.900024 350.599396,298.370636 350.457458,302.254333 
	C350.294434,306.715118 347.054626,307.360809 343.676331,308.003937 
	C347.476196,309.124817 350.349792,307.864502 351.551636,304.113190 
	C352.947174,299.757355 349.320618,293.456207 345.035645,292.582397 
	C340.425903,291.642395 336.028259,292.526520 332.311646,295.535065 
	C327.573395,299.370605 327.274567,305.253448 331.518555,310.044800 
	C334.551849,313.469330 338.648010,315.458984 342.431549,317.881989 
	C354.335480,325.505402 355.898285,339.184479 345.823059,346.938354 
	C338.791229,352.350067 327.893982,348.873322 326.067596,340.669220 
	C325.280365,337.133026 326.426819,334.282745 329.363556,332.461029 
	C332.595276,330.456329 336.116638,330.466553 339.158875,332.953186 
	C343.230286,336.281036 341.267120,340.935669 334.347931,343.647919 
	C337.291687,345.221283 339.678162,344.862061 341.687286,342.839569 
	C344.628540,339.878784 345.563080,336.254242 344.150238,332.275757 
	C342.927429,328.832306 340.199432,326.585999 337.347168,324.493317 
	C333.990265,322.030365 330.607117,319.598511 327.331329,317.030701 
	C322.041626,312.884247 319.565491,307.427307 320.861938,300.759613 
	C322.133118,294.221588 326.624939,290.526093 332.799622,288.598389 
	C337.508667,287.128235 342.228638,286.603149 347.402588,288.189453 
z"/>
<path fill="#000000" opacity="1.000000" stroke="none" 
	d="
M254.595749,316.890320 
	C256.293732,317.491882 257.393524,318.728455 259.237213,318.503510 
	C260.340790,313.029877 259.308716,307.835602 256.691986,303.144714 
	C253.003555,296.532593 243.894836,296.547607 240.316025,302.909546 
	C239.145294,304.990723 238.885788,307.038086 240.696762,308.863007 
	C242.611771,310.792755 244.738129,311.597565 247.251755,309.720276 
	C246.976456,309.247894 246.878860,308.827362 246.670883,308.762909 
	C244.703644,308.153137 242.001083,308.366913 242.211182,305.211853 
	C242.329849,303.430084 243.396271,302.116791 245.301285,301.776398 
	C247.813324,301.327515 249.879456,301.894043 251.287384,304.252716 
	C253.843872,308.535431 250.127991,314.104065 244.479095,314.059418 
	C241.214462,314.033600 238.279404,312.800812 236.505417,309.757782 
	C234.793259,306.820862 234.533752,303.914398 236.305984,300.798706 
	C239.539749,295.113464 246.056610,291.952789 252.845337,293.013275 
	C260.601654,294.224915 264.933899,298.418152 266.327637,305.681488 
	C267.355225,311.036682 266.562500,316.298340 265.806244,321.540985 
	C265.208374,325.685669 264.930603,329.825104 265.147980,333.972748 
	C265.446289,339.664032 267.290619,340.582916 272.377747,337.868896 
	C272.817688,341.140259 271.704559,342.976532 268.453369,344.375061 
	C263.762665,346.392761 261.417938,343.185242 258.847260,339.802338 
	C255.253052,342.074860 251.877563,344.650665 247.200241,344.457489 
	C239.873947,344.154938 234.055862,338.454468 233.675522,330.592102 
	C233.247910,321.752625 237.788376,316.106964 245.964584,315.548431 
	C248.771591,315.356689 251.635574,315.402832 254.595749,316.890320 
M256.290436,323.257477 
	C251.799881,319.586334 246.283661,319.437469 243.402740,322.909668 
	C240.666840,326.207092 241.161392,332.580536 244.398849,335.746643 
	C247.421341,338.702515 252.802902,338.330017 256.543121,334.673767 
	C260.067810,331.228241 259.087402,327.508942 256.290436,323.257477 
z"/>
<path fill="#000000" opacity="1.000000" stroke="none" 
	d="
M65.667206,290.016815 
	C65.669441,285.577423 65.669441,281.616486 65.669441,277.267242 
	C69.748199,275.523193 74.196136,277.516937 78.480858,277.961945 
	C87.476532,278.896179 96.425392,278.747559 105.406021,278.496216 
	C107.066879,278.449738 109.253342,277.925781 109.168236,280.385376 
	C108.902542,288.063965 108.206223,295.714417 105.474960,303.521851 
	C104.241714,294.798370 107.455292,283.482727 92.926239,283.093231 
	C90.766624,292.953247 91.215088,302.735901 91.555969,312.501617 
	C91.689331,316.322083 91.942902,320.151276 92.402969,323.944794 
	C93.335777,331.636383 94.602890,339.223053 102.866623,342.497589 
	C101.966400,345.358582 100.279564,344.523621 98.922134,344.346222 
	C92.778389,343.543304 86.683525,343.466858 80.642441,345.122375 
	C79.383598,345.467377 77.881050,345.921326 77.177872,344.251556 
	C76.606468,342.894684 77.682152,342.089844 78.630127,341.409271 
	C83.189598,338.135925 84.224449,333.057922 84.473740,328.143433 
	C85.199951,313.826599 83.956833,299.546143 82.755554,285.281036 
	C82.548332,282.820282 81.346016,282.264954 79.064781,282.655212 
	C73.413574,283.622040 69.893715,287.758972 69.263969,294.227356 
	C69.008530,296.851044 69.744644,299.907806 66.361008,302.004608 
	C65.066658,297.954742 65.938210,294.175262 65.667206,290.016815 
z"/>
<path fill="#000000" opacity="1.000000" stroke="none" 
	d="
M165.032959,195.885681 
	C171.659668,196.145920 177.818329,195.292969 183.934021,196.518585 
	C188.526718,197.439011 191.233749,200.211761 192.431625,204.581253 
	C193.776413,209.486755 193.147644,214.504105 193.027054,219.474442 
	C192.964554,222.050491 191.333389,223.301773 188.743469,223.299271 
	C175.264908,223.286224 161.786346,223.272110 148.307816,223.289307 
	C145.609222,223.292740 144.306671,221.879211 144.189026,219.343445 
	C143.949982,214.191437 143.681305,209.015503 144.740906,203.923859 
	C145.570343,199.938126 148.270645,197.717178 152.133728,196.690872 
	C156.226578,195.603500 160.391510,195.945023 165.032959,195.885681 
M154.315720,201.991104 
	C150.070496,204.067429 147.336273,212.839355 149.771439,216.536194 
	C150.411041,217.507172 151.346390,217.669006 152.381302,217.559189 
	C153.481873,217.442413 154.302689,216.846603 154.484619,215.758514 
	C154.675018,214.619827 154.640060,213.442459 154.689636,212.281403 
	C154.775879,210.261230 154.738586,207.791428 157.323303,207.645309 
	C160.421509,207.470200 160.170959,210.160446 160.343597,212.322571 
	C160.481735,214.052536 159.557861,216.658081 161.698746,217.196808 
	C166.048508,218.291382 170.721481,218.380173 174.990341,217.191315 
	C178.000458,216.353012 176.241013,212.824585 176.705536,210.526932 
	C176.987137,209.134003 177.330154,207.847672 178.940903,207.653473 
	C180.802094,207.429108 181.721100,208.701859 182.006744,210.260864 
	C182.303680,211.881454 182.235092,213.568115 182.340942,215.224960 
	C182.409317,216.295120 182.793015,217.197571 183.942078,217.453568 
	C184.995453,217.688217 186.220444,217.465012 186.455170,216.407684 
	C187.288986,212.651810 187.628448,208.763458 186.251160,205.121246 
	C185.030548,201.893356 181.835815,201.991760 179.000702,201.961197 
	C171.024506,201.875229 163.047470,201.868469 154.315720,201.991104 
z"/>
<path fill="#000000" opacity="1.000000" stroke="none" 
	d="
M218.618103,342.932556 
	C209.606430,347.137939 202.295868,344.950012 197.373016,336.872162 
	C188.910477,322.985962 192.385941,304.921173 204.926010,297.613312 
	C215.609207,291.387573 225.928391,296.988281 226.302307,309.222748 
	C226.434418,313.545593 225.703049,317.744202 224.559708,322.331238 
	C218.376587,320.744904 212.360489,319.853241 206.162140,320.108673 
	C201.681259,320.293335 200.584564,322.535004 201.563400,326.234436 
	C202.365326,329.265350 203.398788,332.326233 204.905289,335.056152 
	C206.742859,338.385986 209.635559,341.155884 213.789825,339.729828 
	C217.787872,338.357422 217.417694,334.697998 216.550034,331.180206 
	C219.719223,329.243622 222.927124,329.690887 226.740875,330.308014 
	C225.635681,335.629608 222.911682,339.545502 218.618103,342.932556 
M209.103195,300.561066 
	C204.332947,304.675293 202.429474,310.005249 202.047363,315.925598 
	C205.777039,315.925598 209.180267,315.385834 212.327911,316.052643 
	C217.001099,317.042572 218.277939,314.795166 218.613525,310.964539 
	C218.757797,309.317932 218.867020,307.659973 218.847656,306.008850 
	C218.771408,299.504700 215.632599,297.506531 209.103195,300.561066 
z"/>
<path fill="#000000" opacity="1.000000" stroke="none" 
	d="
M152.998230,296.727386 
	C155.461853,295.139771 160.632950,295.177399 165.789841,296.460052 
	C166.638138,299.372589 164.498917,302.272064 165.731110,305.628204 
	C167.754440,303.141571 169.528519,300.680695 171.589722,298.489960 
	C175.232315,294.618439 179.770920,292.098755 184.983643,294.284943 
	C190.266891,296.500671 190.489670,301.688324 190.232666,306.677124 
	C190.148529,308.310394 189.943924,309.937469 189.774124,311.788391 
	C186.393753,311.467651 183.268768,311.748871 180.251923,310.276062 
	C180.445816,308.187897 180.712921,306.229126 180.782043,304.263428 
	C180.833191,302.808075 181.058182,301.077789 179.237198,300.436066 
	C177.673904,299.885132 176.239136,300.552490 175.147827,301.669006 
	C168.520523,308.449402 164.182587,316.185455 165.015854,326.087555 
	C165.472000,331.508148 164.969879,337.190033 170.211075,341.497498 
	C163.881058,342.396088 157.993942,342.008820 151.676346,344.486389 
	C161.063065,328.179047 162.259201,312.722595 152.998230,296.727386 
z"/>
<path fill="#000000" opacity="1.000000" stroke="none" 
	d="
M207.277054,121.250084 
	C206.693527,125.540253 207.781342,128.190033 211.617233,130.504761 
	C218.517563,134.668686 218.396469,144.789215 211.406921,148.720917 
	C208.368225,150.430237 207.315506,154.517914 204.141281,154.876266 
	C200.897339,155.242523 200.792328,149.993256 197.139969,149.369019 
	C194.968079,148.997803 193.178268,147.021027 191.783661,145.096481 
	C190.720566,143.629395 190.244385,142.023911 191.700272,140.593018 
	C193.194260,139.124680 194.729813,139.774307 196.144363,140.906128 
	C197.393997,141.906006 198.213791,143.547455 200.605286,143.638535 
	C200.915039,137.998459 202.502625,132.685684 196.422455,128.243774 
	C190.624115,124.007751 191.612274,117.356270 197.674179,113.436234 
	C197.813705,113.346008 197.952652,113.186539 198.096375,113.181206 
	C201.294861,113.062637 201.356339,107.022758 205.020828,108.948044 
	C207.291275,110.140907 208.975769,112.638321 211.406570,114.114494 
	C213.583130,115.436279 215.387009,117.839127 213.704117,120.417435 
	C211.983490,123.053528 210.083862,121.076080 208.293625,119.799515 
	C207.519485,119.247498 207.402832,120.318794 207.277054,121.250084 
M207.251328,142.487137 
	C207.571701,144.156174 208.568237,144.493408 209.502777,143.169479 
	C211.515701,140.317749 210.783356,138.013275 207.204910,135.292587 
	C207.204910,138.271698 207.204910,140.039597 207.251328,142.487137 
z"/>
<path fill="#000000" opacity="1.000000" stroke="none" 
	d="
M258.317932,144.985443 
	C258.218384,161.241348 260.065399,160.267410 243.545227,160.205765 
	C239.060730,160.189026 234.575348,160.182144 230.092422,160.081024 
	C228.240082,160.039246 226.360748,159.737549 225.498230,157.743744 
	C224.552353,155.557281 226.189423,154.316269 227.499634,153.112137 
	C231.274796,149.642563 235.131027,146.261169 239.079529,142.734268 
	C235.498260,138.395950 231.574295,137.024231 227.959183,135.171188 
	C226.106842,134.221710 223.341873,133.493713 224.473633,130.671616 
	C225.706421,127.597626 228.269791,128.829742 230.413773,129.792252 
	C233.590256,131.218277 236.929901,132.412613 239.618073,134.691391 
	C242.435989,137.080139 244.572067,136.411285 246.769119,133.813171 
	C248.371445,131.918365 250.256424,130.258591 252.053802,128.534088 
	C253.291046,127.347031 254.687286,126.325287 256.491302,127.199844 
	C258.042908,127.952034 258.274384,129.485794 258.281372,131.034882 
	C258.301605,135.519592 258.308594,140.004395 258.317932,144.985443 
M239.417191,153.882187 
	C242.723358,153.875061 246.029541,153.874100 249.335663,153.858414 
	C251.234344,153.849396 252.589386,153.131348 252.607620,151.012741 
	C252.644073,146.778244 252.618408,142.543228 252.618408,137.595551 
	C247.096115,143.555923 242.222275,148.816391 237.678421,153.720703 
	C237.389282,153.682053 238.035538,153.768417 239.417191,153.882187 
z"/>
<path fill="#000000" opacity="1.000000" stroke="none" 
	d="
M161.571045,193.880676 
	C154.336609,190.089828 151.698669,184.269760 152.692810,176.760040 
	C153.516876,170.535034 157.344391,166.667038 163.129272,164.693054 
	C169.374222,162.562073 176.517548,164.853912 180.457672,170.092377 
	C184.266785,175.156662 184.436966,182.891174 180.859100,188.335663 
	C177.408691,193.586227 170.549835,196.263397 164.306366,194.777130 
	C163.501740,194.585571 162.720596,194.295380 161.571045,193.880676 
M168.404282,188.842590 
	C174.347702,187.931915 177.916153,184.122696 177.547638,179.082275 
	C177.175003,173.985336 172.522949,169.654465 167.566284,169.790024 
	C162.754440,169.921616 158.541397,174.243073 158.349213,179.244263 
	C158.147980,184.481033 161.583633,188.049332 168.404282,188.842590 
z"/>
<path fill="#000000" opacity="1.000000" stroke="none" 
	d="
M176.317917,134.150574 
	C178.386810,132.999847 180.079803,131.912064 181.900604,131.116837 
	C183.322281,130.495941 184.933456,130.423325 185.841064,132.065262 
	C186.719528,133.654495 186.014481,135.060059 184.684616,135.966415 
	C182.216599,137.648499 179.598007,139.107834 177.099503,140.747360 
	C172.020828,144.080002 168.031372,148.507706 164.467178,153.376236 
	C163.206070,155.098831 161.697388,157.391724 159.249161,155.674164 
	C156.457336,153.715561 158.484268,151.573013 159.820969,149.705048 
	C164.225693,143.549713 169.567490,138.369049 176.317917,134.150574 
z"/>
<path fill="#000000" opacity="1.000000" stroke="none" 
	d="
M175.190765,371.839478 
	C184.346848,370.797760 192.899933,373.543579 201.666534,374.206543 
	C213.564941,375.106384 225.155273,373.962555 236.815323,372.122589 
	C240.402145,371.556580 244.114273,370.468994 247.959091,372.665283 
	C245.062347,373.397430 242.197388,374.306488 239.263763,374.833313 
	C218.259171,378.605652 197.333221,378.409882 176.527359,373.369415 
	C175.770035,373.185944 174.794952,373.270477 175.190765,371.839478 
z"/>
<path fill="#000000" opacity="1.000000" stroke="none" 
	d="
M228.363983,84.452026 
	C234.994965,85.169930 241.149323,85.937874 246.909256,89.164497 
	C222.727783,85.053284 198.602585,85.003159 174.453918,89.219223 
	C191.962967,83.119377 209.849655,82.619408 228.363983,84.452026 
z"/>
<path fill="#000000" opacity="1.000000" stroke="none" 
	d="
M225.431305,222.491455 
	C222.149506,222.527206 221.195435,220.810699 222.052032,218.317566 
	C222.736343,216.325836 224.838226,216.207443 226.183334,217.231979 
	C228.305267,218.848190 228.243912,220.843384 225.431305,222.491455 
z"/>
<path fill="#000000" opacity="1.000000" stroke="none" 
	d="
M261.655396,216.756271 
	C264.953583,217.731064 265.116608,219.690933 263.424011,221.711670 
	C262.391144,222.944687 260.417084,223.017197 259.472382,221.609879 
	C258.055786,219.499603 258.242798,217.477585 261.655396,216.756271 
z"/>
</svg>